<mxfile host="app.diagrams.net" agent="Mozilla/5.0 (X11; Ubuntu; Linux x86_64; rv:144.0) Gecko/20100101 Firefox/144.0" version="28.2.8">
  <diagram name="Page-1" id="bjVDkqN4jfYfFJxV3ved">
    <mxGraphModel dx="1360" dy="795" grid="1" gridSize="10" guides="1" tooltips="1" connect="1" arrows="1" fold="1" page="1" pageScale="1" pageWidth="850" pageHeight="1100" math="0" shadow="0">
      <root>
        <mxCell id="0" />
        <mxCell id="1" parent="0" />
        <mxCell id="tC6INBS62KU_Nt3FtVll-2" value="" style="rounded=0;whiteSpace=wrap;html=1;fillColor=light-dark(#FFFFFF,#FFFFFF);strokeColor=light-dark(#000000,#000000);strokeWidth=8;" parent="1" vertex="1">
          <mxGeometry x="40" y="40" width="870" height="400" as="geometry" />
        </mxCell>
        <mxCell id="tC6INBS62KU_Nt3FtVll-1" value="&lt;h1&gt;&lt;font style=&quot;color: light-dark(rgb(0, 0, 0), rgb(0, 0, 0)); font-size: 30px;&quot;&gt;ros2 launch aruco_localization multi_detection.launch.py&lt;/font&gt;&lt;/h1&gt;" style="text;html=1;align=center;verticalAlign=middle;whiteSpace=wrap;rounded=0;fontSize=16;" parent="1" vertex="1">
          <mxGeometry x="55.75" y="60" width="840" height="30" as="geometry" />
        </mxCell>
        <mxCell id="tC6INBS62KU_Nt3FtVll-3" value="" style="rounded=1;whiteSpace=wrap;html=1;fillColor=none;strokeColor=light-dark(#000000,#000000);strokeWidth=3;" parent="1" vertex="1">
          <mxGeometry x="380" y="170" width="190" height="60" as="geometry" />
        </mxCell>
        <mxCell id="tC6INBS62KU_Nt3FtVll-4" value="&lt;div align=&quot;center&quot;&gt;&lt;span style=&quot;color: light-dark(rgb(0, 0, 0), rgb(0, 0, 0));&quot;&gt;&quot;aruco_localization&quot;&lt;/span&gt;&lt;/div&gt;&lt;div align=&quot;center&quot;&gt;&lt;span style=&quot;color: light-dark(rgb(0, 0, 0), rgb(0, 0, 0));&quot;&gt;multi_detection.launch.py&lt;/span&gt;&lt;/div&gt;" style="text;strokeColor=none;fillColor=none;html=1;align=center;verticalAlign=middle;whiteSpace=wrap;rounded=0;fontSize=16;" parent="1" vertex="1">
          <mxGeometry x="416.25" y="180" width="120" height="30" as="geometry" />
        </mxCell>
        <mxCell id="tC6INBS62KU_Nt3FtVll-7" value="" style="rhombus;whiteSpace=wrap;html=1;fillColor=none;strokeColor=light-dark(#000000,#000000);strokeWidth=3;" parent="1" vertex="1">
          <mxGeometry x="490" y="300" width="240" height="100" as="geometry" />
        </mxCell>
        <mxCell id="tC6INBS62KU_Nt3FtVll-8" value="&lt;div&gt;&lt;span style=&quot;color: light-dark(rgb(0, 0, 0), rgb(0, 0, 0));&quot;&gt;&quot;aruco_localization&quot;&lt;/span&gt;&lt;/div&gt;&lt;div&gt;&lt;span style=&quot;color: light-dark(rgb(0, 0, 0), rgb(0, 0, 0));&quot;&gt;aruco_detection_node&lt;/span&gt;&lt;/div&gt;" style="text;strokeColor=none;fillColor=none;html=1;align=center;verticalAlign=middle;whiteSpace=wrap;rounded=0;fontSize=16;" parent="1" vertex="1">
          <mxGeometry x="550" y="330" width="120" height="30" as="geometry" />
        </mxCell>
        <mxCell id="tC6INBS62KU_Nt3FtVll-11" value="" style="endArrow=classic;html=1;rounded=0;fontSize=12;startSize=8;endSize=8;curved=1;strokeColor=light-dark(#000000,#000000);entryX=0.5;entryY=0;entryDx=0;entryDy=0;exitX=0.85;exitY=0.567;exitDx=0;exitDy=0;strokeWidth=3;exitPerimeter=0;" parent="1" source="bSa77lTKPPTLmuuF26cq-5" target="tC6INBS62KU_Nt3FtVll-7" edge="1">
          <mxGeometry width="50" height="50" relative="1" as="geometry">
            <mxPoint x="612.4999999999998" y="240.0000000000001" as="sourcePoint" />
            <mxPoint x="650" y="279" as="targetPoint" />
            <Array as="points">
              <mxPoint x="600" y="250" />
            </Array>
          </mxGeometry>
        </mxCell>
        <mxCell id="tC6INBS62KU_Nt3FtVll-39" value="" style="rhombus;whiteSpace=wrap;html=1;fillColor=none;strokeColor=light-dark(#000000,#000000);strokeWidth=3;" parent="1" vertex="1">
          <mxGeometry x="223.25" y="300" width="240" height="100" as="geometry" />
        </mxCell>
        <mxCell id="tC6INBS62KU_Nt3FtVll-40" value="&lt;div&gt;&lt;span style=&quot;color: light-dark(rgb(0, 0, 0), rgb(0, 0, 0));&quot;&gt;&quot;aruco_localization&quot;&lt;/span&gt;&lt;/div&gt;&lt;div&gt;&lt;span style=&quot;color: light-dark(rgb(0, 0, 0), rgb(0, 0, 0));&quot;&gt;aruco_pose_pub&lt;/span&gt;&lt;/div&gt;" style="text;strokeColor=none;fillColor=none;html=1;align=center;verticalAlign=middle;whiteSpace=wrap;rounded=0;fontSize=16;" parent="1" vertex="1">
          <mxGeometry x="283.25" y="335" width="120" height="30" as="geometry" />
        </mxCell>
        <mxCell id="tC6INBS62KU_Nt3FtVll-41" value="" style="endArrow=classic;html=1;rounded=0;fontSize=12;startSize=8;endSize=8;curved=1;strokeColor=light-dark(#000000,#000000);entryX=0.5;entryY=0;entryDx=0;entryDy=0;exitX=0.168;exitY=0.567;exitDx=0;exitDy=0;strokeWidth=3;exitPerimeter=0;" parent="1" source="bSa77lTKPPTLmuuF26cq-5" target="tC6INBS62KU_Nt3FtVll-39" edge="1">
          <mxGeometry width="50" height="50" relative="1" as="geometry">
            <mxPoint x="366.25" y="201.0000000000001" as="sourcePoint" />
            <mxPoint x="296.25" y="255" as="targetPoint" />
            <Array as="points">
              <mxPoint x="360" y="250" />
            </Array>
          </mxGeometry>
        </mxCell>
        <mxCell id="bSa77lTKPPTLmuuF26cq-1" value="&lt;span style=&quot;color: light-dark(rgb(0, 0, 0), rgb(0, 0, 0));&quot;&gt;CAMERA_ENABLED_ID&amp;nbsp; &amp;nbsp; &amp;nbsp; &amp;nbsp; &amp;nbsp;ROBOTS&lt;/span&gt;" style="text;html=1;whiteSpace=wrap;strokeColor=none;fillColor=none;align=center;verticalAlign=middle;rounded=0;" vertex="1" parent="1">
          <mxGeometry x="340" y="114" width="220" height="30" as="geometry" />
        </mxCell>
        <mxCell id="bSa77lTKPPTLmuuF26cq-2" value="" style="endArrow=classic;html=1;rounded=0;fontSize=12;startSize=8;endSize=8;curved=1;strokeColor=light-dark(#000000,#000000);entryX=0.15;entryY=-0.024;entryDx=0;entryDy=0;exitX=0.311;exitY=0.986;exitDx=0;exitDy=0;strokeWidth=3;exitPerimeter=0;entryPerimeter=0;" edge="1" parent="1" source="bSa77lTKPPTLmuuF26cq-1" target="tC6INBS62KU_Nt3FtVll-3">
          <mxGeometry width="50" height="50" relative="1" as="geometry">
            <mxPoint x="370" y="150.5" as="sourcePoint" />
            <mxPoint x="300" y="249.5" as="targetPoint" />
          </mxGeometry>
        </mxCell>
        <mxCell id="bSa77lTKPPTLmuuF26cq-3" value="" style="endArrow=classic;html=1;rounded=0;fontSize=12;startSize=8;endSize=8;curved=1;strokeColor=light-dark(#000000,#000000);entryX=0.786;entryY=-0.017;entryDx=0;entryDy=0;exitX=0.862;exitY=1.014;exitDx=0;exitDy=0;strokeWidth=3;exitPerimeter=0;entryPerimeter=0;" edge="1" parent="1" source="bSa77lTKPPTLmuuF26cq-1" target="tC6INBS62KU_Nt3FtVll-3">
          <mxGeometry width="50" height="50" relative="1" as="geometry">
            <mxPoint x="510" y="150" as="sourcePoint" />
            <mxPoint x="511" y="175" as="targetPoint" />
          </mxGeometry>
        </mxCell>
        <mxCell id="bSa77lTKPPTLmuuF26cq-4" value="" style="rounded=1;whiteSpace=wrap;html=1;fillColor=none;strokeColor=light-dark(#000000,#000000);strokeWidth=3;" vertex="1" parent="1">
          <mxGeometry x="400" y="230" width="150" height="20" as="geometry" />
        </mxCell>
        <mxCell id="bSa77lTKPPTLmuuF26cq-5" value="&lt;font style=&quot;font-size: 10px;&quot;&gt;&lt;span style=&quot;color: light-dark(rgb(0, 0, 0), rgb(0, 0, 0));&quot;&gt;for each camera_id&lt;/span&gt;&lt;/font&gt;" style="text;html=1;whiteSpace=wrap;strokeColor=none;fillColor=none;align=center;verticalAlign=middle;rounded=0;" vertex="1" parent="1">
          <mxGeometry x="363" y="223" width="220" height="30" as="geometry" />
        </mxCell>
        <mxCell id="bSa77lTKPPTLmuuF26cq-6" value="&lt;span style=&quot;color: light-dark(rgb(0, 0, 0), rgb(0, 0, 0));&quot;&gt;CAMERA_ID&lt;/span&gt;" style="text;html=1;whiteSpace=wrap;strokeColor=none;fillColor=none;align=center;verticalAlign=middle;rounded=0;" vertex="1" parent="1">
          <mxGeometry x="578.25" y="253" width="140" height="30" as="geometry" />
        </mxCell>
        <mxCell id="bSa77lTKPPTLmuuF26cq-7" value="&lt;span style=&quot;color: light-dark(rgb(0, 0, 0), rgb(0, 0, 0));&quot;&gt;CAMERA_ENABLED_ID, ROBOTS&lt;/span&gt;" style="text;html=1;whiteSpace=wrap;strokeColor=none;fillColor=none;align=center;verticalAlign=middle;rounded=0;" vertex="1" parent="1">
          <mxGeometry x="140" y="250" width="220" height="30" as="geometry" />
        </mxCell>
        <mxCell id="bSa77lTKPPTLmuuF26cq-8" value="" style="rounded=0;whiteSpace=wrap;html=1;fillColor=none;strokeColor=light-dark(#000000,#000000);strokeWidth=3;" vertex="1" parent="1">
          <mxGeometry x="710" y="109" width="163.25" height="120" as="geometry" />
        </mxCell>
        <mxCell id="bSa77lTKPPTLmuuF26cq-9" value="&lt;div align=&quot;left&quot;&gt;&lt;span style=&quot;color: light-dark(rgb(0, 0, 0), rgb(0, 0, 0));&quot;&gt;Legend:&lt;/span&gt;&lt;/div&gt;&lt;div align=&quot;left&quot;&gt;&lt;span style=&quot;color: light-dark(rgb(0, 0, 0), rgb(0, 0, 0));&quot;&gt;&lt;br&gt;&lt;/span&gt;&lt;/div&gt;&lt;div align=&quot;left&quot;&gt;&lt;span style=&quot;color: light-dark(rgb(0, 0, 0), rgb(0, 0, 0));&quot;&gt;&lt;span style=&quot;white-space: pre;&quot;&gt;&quot;(arg)&quot;&lt;/span&gt;&lt;span style=&quot;white-space: pre;&quot;&gt;&#x9;&lt;span style=&quot;white-space: pre;&quot;&gt;&#x9;&lt;/span&gt;&lt;/span&gt;= pkg name&lt;/span&gt;&lt;/div&gt;&lt;div align=&quot;left&quot;&gt;&lt;span style=&quot;color: light-dark(rgb(0, 0, 0), rgb(0, 0, 0));&quot;&gt;&lt;br&gt;&lt;/span&gt;&lt;/div&gt;&lt;div align=&quot;left&quot;&gt;&lt;span style=&quot;color: light-dark(rgb(0, 0, 0), rgb(0, 0, 0));&quot;&gt;&lt;span style=&quot;white-space: pre;&quot;&gt;&#x9;&lt;/span&gt;&lt;span style=&quot;white-space: pre;&quot;&gt;&#x9;&lt;span style=&quot;white-space: pre;&quot;&gt;&#x9;&lt;/span&gt;&lt;/span&gt;= launch file&lt;/span&gt;&lt;/div&gt;&lt;div align=&quot;left&quot;&gt;&lt;span style=&quot;color: light-dark(rgb(0, 0, 0), rgb(0, 0, 0));&quot;&gt;&lt;br&gt;&lt;/span&gt;&lt;/div&gt;&lt;div align=&quot;left&quot;&gt;&lt;span style=&quot;color: light-dark(rgb(0, 0, 0), rgb(0, 0, 0));&quot;&gt;&lt;span style=&quot;white-space: pre;&quot;&gt;&#x9;&lt;/span&gt;&lt;span style=&quot;white-space: pre;&quot;&gt;&#x9;&lt;/span&gt;&lt;span style=&quot;white-space: pre;&quot;&gt;&#x9;&lt;/span&gt;= node&lt;/span&gt;&lt;/div&gt;" style="text;html=1;whiteSpace=wrap;strokeColor=none;fillColor=none;align=left;verticalAlign=middle;rounded=0;" vertex="1" parent="1">
          <mxGeometry x="718.25" y="127" width="149" height="70" as="geometry" />
        </mxCell>
        <mxCell id="bSa77lTKPPTLmuuF26cq-10" value="" style="rounded=1;whiteSpace=wrap;html=1;fillColor=none;strokeColor=light-dark(#000000,#000000);strokeWidth=2;" vertex="1" parent="1">
          <mxGeometry x="720.75" y="171.5" width="49.25" height="15" as="geometry" />
        </mxCell>
        <mxCell id="bSa77lTKPPTLmuuF26cq-11" value="" style="rhombus;whiteSpace=wrap;html=1;fillColor=none;strokeColor=light-dark(#000000,#000000);strokeWidth=2;" vertex="1" parent="1">
          <mxGeometry x="718.25" y="195" width="55" height="25" as="geometry" />
        </mxCell>
      </root>
    </mxGraphModel>
  </diagram>
</mxfile>
